<?xml version="1.0" encoding="utf-8"?>
<svg version="1.1" xmlns="http://www.w3.org/2000/svg" xmlns:xlink="http://www.w3.org/1999/xlink" x="0px" y="0px"
	 viewBox="0 0 1024 512" enable-background="new 0 0 1024 512" xml:space="preserve">
<path opacity="0.75" fill-rule="evenodd" clip-rule="evenodd" fill="#FFA500" d="M143.6,138.8c-35.7-4.5-93.8,12.7-128.4,46.9
	c22.7-0.2,64.2,12.3,83.4,39.4C101.9,206.6,114.4,170.1,143.6,138.8z"/>
<path opacity="0.75" fill-rule="evenodd" clip-rule="evenodd" fill="#FFA500" d="M143.6,141.8c-10.6,12.7-32.4,48.6-41.3,87.8
	c10-2.2,39.3-7.6,58.1,10.8C147,214.3,136.4,167.1,143.6,141.8z"/>
<path opacity="0.75" fill-rule="evenodd" clip-rule="evenodd" fill="#FFA500" d="M145.5,145.1c-2.2,11,0,50,20.1,97.5
	c6.3-6.2,17.8-7.3,27.2-5.2C165.4,213.3,151.3,177.1,145.5,145.1z"/>
<path opacity="0.75" fill-rule="evenodd" clip-rule="evenodd" fill="#FFA500" d="M53.8,452.8c-3.5,7.2-1.9,11.1-1.7,15.2
	c4.5-0.8,10.9-3.1,12.5-5.7C61.4,460.5,55.7,455.6,53.8,452.8z"/>
<path opacity="0.75" fill-rule="evenodd" clip-rule="evenodd" fill="#FFA500" d="M68,464.9c-3.1,8.9-0.7,13.3,0.1,18.2
	c5.1-1.5,12.5-5.1,14-8.5C78,472.8,70.5,467.8,68,464.9z"/>
<path opacity="0.75" fill-rule="evenodd" clip-rule="evenodd" fill="#FFA500" d="M85.1,476.2c-1.9,9.9,1.3,14.2,3,19.1
	c5.2-2.4,12.3-7.4,13.4-11.1C96.9,482.9,88.3,478.9,85.1,476.2z"/>
<path opacity="0.75" fill-rule="evenodd" clip-rule="evenodd" fill="#FFA500" d="M105.5,486c0,11.1,4.3,15.1,7.1,20.1
	c5.1-3.7,11.8-10.5,12.2-14.8C119.7,490.9,109.5,488.3,105.5,486z"/>
<path opacity="0.75" fill-rule="evenodd" clip-rule="evenodd" fill="#FFA500" d="M129.6,492.5c1.1,10,5.4,13.2,8.5,17.4
	c4.2-3.8,9.6-10.7,9.5-14.6C142.9,495.5,133.5,494.2,129.6,492.5z"/>
<path opacity="0.75" fill-rule="evenodd" clip-rule="evenodd" fill="#FFA500" d="M152.7,495.9c2.1,8.8,6.3,11.2,9.5,14.6
	c3.4-3.9,7.4-10.6,6.9-14.1C164.9,497.1,156.3,496.9,152.7,495.9z"/>
<path opacity="0.75" fill-rule="evenodd" clip-rule="evenodd" fill="#FFA500" d="M176,496.8c2.2,7,5.8,8.6,8.5,11.2
	c2.5-3.4,5.3-9,4.7-11.8C185.9,497,178.9,497.4,176,496.8z"/>
<path opacity="0.75" fill-rule="evenodd" clip-rule="evenodd" fill="#FFA500" d="M195.6,495.7c1.8,5.7,4.7,7,6.9,9.1
	c2-2.7,4.3-7.3,3.8-9.6C203.7,495.9,198,496.2,195.6,495.7z"/>
<path opacity="0.75" fill-rule="evenodd" clip-rule="evenodd" fill="#FFA500" d="M213,494.2c1.5,4.8,3.9,5.9,5.8,7.7
	c1.7-2.3,3.6-6.2,3.2-8.1C219.8,494.4,215.1,494.7,213,494.2z"/>
<path fill-rule="evenodd" clip-rule="evenodd" fill="#FFA500" d="M369,78.8c8,1.7,16.1-5.2,17.5-15.1c-3.9,3.1-11.2-0.6-19-3.4
	c-7.7-2.8-18.2,4.6-21.5,11C350.2,69,361.1,77.2,369,78.8z"/>
<path fill-rule="evenodd" clip-rule="evenodd" fill="#FFA500" d="M383,62.7c5.3,0.7,10.3-6.6,10.9-11.1c-2.6,1-8.1,0.4-13.4-0.9
	c-5.3-1.3-11.1,3.3-13,7.7C370.2,56.7,377.7,61.9,383,62.7z"/>
<path fill-rule="evenodd" clip-rule="evenodd" fill="#FFA500" d="M390.9,49.7c6.5-0.2,6.2-5.6,11.1-14.1c-7.9,3.7-14,5.1-19.2,11.4
	C385.5,50,386.8,49.8,390.9,49.7z"/>
<path fill-rule="evenodd" clip-rule="evenodd" fill="#FFA500" d="M417.8,164.1c-0.6-5.2-1.4-8.9-1.4-14.1
	c0.1-13.1,1.6-24.6-8.5-27.8c-10.1-3.2-12.5,1.8-16.2-0.3c-2.7-1.5-15.8-10.8-28.4-22.6c5-3.7,9.3-9.8,11.7-16.8
	c-7.5,1.4-18.8-5.3-27.9-9.1c-5.7-2.4-10.5-1-13.8,1.9c-2.5-1-5.1-1.8-7.8-2.3c2.7-1.3,6.4-2.2,8-8.2c-4.8,4.8-7,3.5-9.4,4.2
	c-1-3.5,8.5-5.6,16-13.2c-7.8,4.6-19.9,4.9-25.1,11c-1.7-11.2-7.6-23.4-17.8-33.4c-13.7-13.5-30.3-27.6-32.1-32
	c4.8,11.4,11.3,22,11.1,27.1c7,4.3,19.9,12.5,28.5,26.2c4.4,7,6.3,12.9,7.1,17c-0.5,0-0.9,0-1.4,0c-0.1,0-0.3,0-0.4,0
	c-7.9-26.1-40.2-40.5-58.3-57.7c11,12.3,8.7,27.7,6.9,44.6c-1.1,9.9,1.2,17.5,4.3,23.2c-5.2-4.2-9.4-8.5-10.4-12
	c-2.4-9-9.9-12.2-9.9-12.2s3.4,5,4.7,13.2c0.8,4.7,3.9,9.2,8.7,13.9c-0.1,0-0.2-0.1-0.4-0.1c-13.2-2.7-21.2-3.2-29.3-15.9
	c6.1,14.8,10.5,21,28.2,27.5c0.3,0.1,0.6,0.3,0.9,0.4c-2.6-0.2-5.4-0.3-8.5-0.3c-9.2-6.7-23.6-11.5-29.4-11.3
	c7.9,3.4,12.6,6.9,15.8,10.5c-17.3-2.6-21.3-10.9-21.3-10.9c0,0-1.3,19.4,28.3,23.1c0.5,1.2,1.1,2.4,1.7,3.6c2,4.1,5.6,7.3,9.5,10
	c-7.7-0.8-15.1-1.6-24.5-8.9c9.9,10.7,16.5,13.1,23.6,14.9c-4.6,0.5-9,0.7-13-1.1c-9.2-4.1-18.8-15.9-36.5-15.5
	c20.1,3.3,19.2,18.2,30.5,23.9c6.2,3.1,13.6,3.2,20.1,3.7c-9.2,1.8-14.5,6-23.4,5.6c8.7,6.4,16.3,1.5,24.5,1.1
	c-0.3,10.2-0.3,19.7-0.5,27c-0.4,11.6-6.7,34.7-23.3,52.7c-34,0.4-58.6-23.8-80-97.2c-48.6-6.3-113.3,26.7-141,65.9
	c19.8-17.6,78.4-54.8,133.7-53.2c-16.9,18.7-43.5,73.7-42.9,102.4c3.1-14.2,16.9-58.1,42.3-94.2c-1.4,28.4,12.2,79.1,26.6,100.9
	c-4-14.5-20.8-52.3-22-97.5c10.3,40.2,32.8,72.8,57.1,91.5c-7.7,3.2-16.3,5.4-26.2,6c-71.3,4.8-102.2,23.3-125.2,63.5
	c-30.7,53.8-22.2,115.6,8.5,142.6c24.5,21.7,67,42.6,129.9,38.6c62.9-4,100.9-16.2,115.8-22.1c-20,0.2-76.1,3.1-114.8-0.9
	c-38.8-4-106.2-20-92.3-68.2c-1.8,7.3-0.1,14.5,2.4,20.2c4.5,2.1,19.8,5.3,40,3.8c-1.8-23.7-6.2-39.6-8.9-49.4
	c-2.9-10.7-5.7-26.4,7.1-39.1c-9.2,13.6-7.8,27.5-4.2,38.1c4,11.7,10.2,49.3,9.9,56.5c-0.3,7.2,3.6,15.8,15.5,16.9
	c12,1.1,35.6,0.8,42.4,0.5c3.3-0.2,7.2-2.4,9.7-6.1c1.7,0.2,3.6,0.6,5.3,1.4c-0.5-2.4-1.8-4.1-3.5-5.2c0.3-0.8,0.4-1.7,0.5-2.7
	c1.4,0.2,2.9,0.6,4.4,1.2c-0.6-2.9-2.3-4.7-4.6-5.7c-0.1-0.5-0.3-1.1-0.5-1.6c0.8,0.2,1.5,0.5,2.3,0.8c-0.6-2.9-2.4-4.8-4.8-5.8
	c-9.8-14.7-25.7-0.7-29.6-8.8c-3-6.3,1.6-20,8-39.1c3.1-9.1,20.2-48.4,20.7-59.8c1-22.9-12.2-46-40-46.6
	c27.6-2.8,45.9,25.3,42.8,47.5c-2.8,20.1-15.6,42.9-20.7,59.3c-8.3,26.5-8.9,32.8-7.5,34.4c3.6,4.2,7.2-1.2,13.6,0.5
	c10.1-3.4,26.5-13.4,32.9-21.2c-1.3-3.3-6-13.4-8.9-17.9c-7.7-11.6-11.7-28.5,0.5-48c-13,28.1,3.3,46.3,8,55.5
	c5.2,10.1,18,33.8,20.2,49.4c2.6,18.3,10.8,17.9,20.2,18.4c9.4,0.5,24.8-0.2,33.4,0c4,0.1,8.7-2.2,11.5-6.1c1.9,0.1,4,0.6,5.9,1.4
	c-0.5-2.6-2-4.3-3.9-5.4c0.2-0.8,0.4-1.6,0.5-2.5c1.6,0.2,3.2,0.6,4.9,1.3c-0.6-3.2-2.7-5.1-5.3-6c-0.1-0.5-0.3-1-0.5-1.5
	c1,0.2,2,0.5,3,1c-0.7-3.5-3.1-5.5-6.1-6.3c-9.6-12-22.3-1.2-24.9-5.5c-2.7-4.4-14.5-57-9.9-73.9c6.1-22.4,10.4-29.5,23.1-52.7
	c12.7-23.2,26-73.5,19.8-105c-19.4-0.2-34.8-5.5-40.9-12.2c-7-7.6-5.1-17-3.3-20.2c-0.7,4.5-1.2,12.4,5.2,18.4
	c5.2,4.8,19.3,10.9,39.1,9.9c19.7-1,27.9-5.2,41.9-4.2c14,1,26.7,3.9,36.7,3.3c7.9-0.5,8.9-10,13.6-13.2c-2.8-0.1-4.8-1.7-6.6-5.2
	C411.2,164.7,414,163.6,417.8,164.1z M279.9,88.8c-7-9.1-8.7-17.1-7.1-24.5c1.3-5.8,2.6-10.1,0.9-15.5c18.8,7.7,25,22.4,27.3,30.1
	C294,80,285.2,85.4,279.9,88.8z M338.7,125.2c-1.5-7.2-13.1-9.2-19.1-1.2c-2.3,3.1-3.5,1-2.4-1.1c6.4-12.2,22.7-10.6,27,1.7
	C345.9,129.5,339.6,129.4,338.7,125.2z M407.4,142c0.3-1.4,2.2-2.2,1.9-5.6c-5.8,0.4-4.9-5.2-1.4-5.2
	C412.7,131.2,411.1,141.7,407.4,142z"/>
<path fill="#00FFE4" d="M605.9,356.7c-9.2-30.3,9.5-115.9,31.7-179c0,0-13.9,2.6-25.1,2.6c-14.8,54.2-59.6,191.2,0.6,214.2
	c9.4,3.6,30,2.2,34.8-19.4C630.7,387.3,612.3,377.7,605.9,356.7z"/>
<path fill="#00FFE4" d="M953.1,286.9c22.8-11,27.6-28.5,17.1-34.1c-10.2-5.4-14.6,8.1-14.6,8.1s-5.2-14-14.6-8.9
	C929.7,257.9,935.5,276.9,953.1,286.9z"/>
<path fill="#00FFE4" d="M763.2,163.9c2.8,14.9-6.5,25.6-21.1,26.2c-17.9,0.8-21.3-16.3-16.2-27.6c-12.4,10.9-15.7,34.5,16.2,41.9
	c26,6,56.4-19.4,41.3-56.1c-13.7-33.2-49.8-30.4-93.9-8.9c-68.3,33.2-188.2,31.6-253.3,28.7c64,6.9,203.5,17,257.8-8.5
	C738.8,138.6,759.2,142.8,763.2,163.9z"/>
<path fill="#00FFE4" d="M1000.7,323.9c-0.2-2.5-5.3-3-6-0.6c-2.9,10.8-4.7,21.7-8.3,32.3c-3.5,10.2-7.5,22.8-15.4,30.5
	c-0.7,0.7-1.4,1.4-2.2,1.9c-0.3,0.2-0.4,0.3-0.5,0.4c-0.1,0-0.2,0-0.4,0c-0.1,0-0.3,0-0.4,0c-1.5-0.9-2.4-1.7-3.3-3.3
	c-4.2-7.3-4.5-18-5.4-26.2c-1.9-19.2-1-38.7,2.8-57.6c2-9.7-16.8-11.8-18.5-3.6c-2.6,12.8-4.1,25.9-4.4,38.9
	c-3.8,10.1-7.2,20.4-12.2,30.1c-3.6,6.9-7.7,14.4-13.9,19.4c-5.5,4.5-7.7,1-9.1-5.3c-2.9-13.4-1.8-28.7-1.2-42.3
	c0.6-14.6,3-29.8,2-44.4c-0.8-12.5-12.4-21-24.3-14.9c-5.8,2.9-9.8,8.8-13.2,14c-6.2,9.4-11.3,19.6-15.6,30.2c0-2.8-0.1-5.5-0.3-8.3
	c-0.4-9.5-0.4-20.2-8.8-26.3c-8.6-6.2-18.2-3.2-23.5,5.1c-5.9,9.2-9.2,20.3-12.2,30.7c-2.5,8.6-4.5,17.4-6.4,26.2
	c0.1-6,0.2-12,0.3-18.1c0.2-10.7,0.7-21.4,1.4-32.1c0.4-5.5,0.8-11.1,1.3-16.6c0.5-5.8,1.3-9.1-3.6-13c-2.8-2.2-7.3-1.7-10.2,0
	c-5.3,3.2-4.9,7.4-5.4,13c-0.5,5.5-0.9,11.1-1.2,16.6c-0.6,10.7-1,21.4-1.2,32.1c0,0.3,0,0.6,0,0.9c-0.4,3.2-0.7,6.4-1.3,9.3
	c-1.8,8.5-4,17-7.1,25.2c-2.7,7.1-6,15.1-12.6,19.5c-3.4,2.3-5.9,2.6-8.2-1.5c-5.8-10.5-4.8-60.7-3.4-83.9
	c7.6-10.8,13.3-22.8,16.8-35.6c2.1-7.7,3.7-15.9,3.9-23.9c0.1-6.2,0-14-6.2-17.2c-31-15.8-33.5,71.4-34,86.9
	c-0.2,6.4-0.3,14.5-0.2,23c-4.1,14.7-8.9,29.5-19.7,40.6c-7.2,7.4-20.1,12-28.1,4.7c-4.2-3.9-6.7-9.4-8.3-14.8
	c-2.2-7.3-2.8-15.2-2.4-23c0,0,0.1,0,0.1,0c13.9-5.4,27.7-14,35.7-26.9c5.9-9.6,12.5-30.1-0.8-36.8c-8.5-4.3-19.2-1.4-26.9,3.2
	c-8,4.8-13.5,13.1-17.5,21.3c-8.5,17.3-11.7,38.8-8.4,57.8c1.5,8.6,4.3,17.6,10.6,23.9c8.9,9,23.2,11.6,35,6.7
	c12.2-5.1,21.7-18,27.7-29.2c1.3-2.4,2.5-4.9,3.7-7.5c0.9,13.5,2.6,25.9,5.6,32.7c2.8,6.3,7.8,12.5,14.6,13.6
	c12.9,2,20-9.4,25.1-19.1c2.9-5.6,5.2-11.4,7.2-17.4c0.7,10.5,1.5,21.6,5.1,31.5c0.7,1.9,3.4,2.9,5.9,2.8c0.9,0.4,2.3,0.1,2.8-0.7
	c0.8-0.5,1.4-1.1,1.6-2.1c0.3-1.5,0.6-3.1,0.8-4.6c1.6-5.4,2.6-11.2,3.8-16.3c2.7-11.2,5.4-22.5,8.5-33.6c3.1-11,6.4-22,10.8-32.6
	c1.6-3.9,3.4-7.8,5.8-11.3c0.7-1.1,1.5-2.2,2.4-3.1c0,0,0,0,0,0c0.3,1.6,0.6,3.2,0.9,4.8c0.8,5,0.9,10.1,1.1,15.1
	c0.6,12.3,0.2,24.6-0.8,36.9c-0.5,6.3,9.1,8.2,15,5.5c1.7-0.1,3.2-0.9,3.6-2.3c5.7-19.1,12.5-39.1,23.7-55.7c2.2-3.3,4.5-6.6,7.7-9
	c0.6-0.5,1.7-0.9,2.4-1.4c0.1,0.1,0.3,0.2,0.4,0.4c3.5,4.6,1.3,14.8,1,20.3c-0.4,7.7-0.9,15.4-1.2,23.1c-0.7,14.5-1.7,29.7,0.8,44
	c1.8,10,7.4,17.9,18,19.4c14,1.9,22.9-12.2,28.8-22.8c3.1-5.5,5.8-11.3,8.2-17.1c0.3,4,0.8,7.9,1.4,11.9c1.5,10.3,3,21.1,12.9,26.6
	c5.6,3.1,14.1,4.5,19.4,0c8.6-7.3,13.8-20.4,17.8-30.6c2.7-7,4.9-14.1,6.8-21.4C999.3,336.8,1001.2,330.2,1000.7,323.9z M754.2,261
	c1-4.7,2-9.5,3.2-14.2c0.9-3.5,2.3-7.4,2.9-11c0.2,0.2,0.3,0.4,0.5,0.6c1.4,2.6,1.3,5.8,1.2,8.6c-0.2,4.8-1,9.7-2,14.4
	c-2,9.4-5.3,18.4-9.5,26.9C751.2,277.9,752.5,269.4,754.2,261z M674.4,321.7c3.4-11.9,10.1-27,21-32.8c0.3-0.1,2.2-0.9,3.1-1.2
	c1-0.3,0.5-0.3,1.1-0.4c0.2,0.3,0.5,0.6,1,1.1c1.6,7.5,1.8,13.3-1.4,20.7c-5.4,12.5-15.6,20.4-27.6,25.6
	C672.3,330.2,673.3,325.9,674.4,321.7z M884.2,288.7c0.1-0.1,0.1-0.1,0.2-0.2C884.9,287.8,886.5,289.5,884.2,288.7z"/>
</svg>
